<svg width="21" height="21" viewBox="0 0 21 21" fill="none" xmlns="http://www.w3.org/2000/svg">
<path d="M8.81999 1.25999C4.88085 1.25999 1.67999 4.46085 1.67999 8.39999C1.67999 12.3391 4.88085 15.54 8.81999 15.54C10.3786 15.54 11.8191 15.038 12.9937 14.1881L18.5194 19.7006L19.7006 18.5194L14.2406 13.0462C15.3136 11.7961 15.96 10.1735 15.96 8.39999C15.96 4.46085 12.7591 1.25999 8.81999 1.25999ZM8.81999 2.09999C12.3047 2.09999 15.12 4.91531 15.12 8.39999C15.12 11.8847 12.3047 14.7 8.81999 14.7C5.3353 14.7 2.51999 11.8847 2.51999 8.39999C2.51999 4.91531 5.3353 2.09999 8.81999 2.09999Z" fill="#8E8E8E"/>
</svg>
